<?xml version="1.0" encoding="utf-8"?>
<!-- Generator: Adobe Illustrator 21.1.0, SVG Export Plug-In . SVG Version: 6.00 Build 0)  -->
<svg version="1.1" id="Layer_1" xmlns="http://www.w3.org/2000/svg" xmlns:xlink="http://www.w3.org/1999/xlink" x="0px" y="0px"
	 viewBox="0 0 100 100" style="enable-background:new 0 0 100 100;" xml:space="preserve">
<path d="M98.591,91.788l-31.067-31.07c5.091-6.568,7.881-14.569,7.881-23.016c0-10.071-3.921-19.539-11.044-26.659
	C57.242,3.921,47.773-0.001,37.702-0.001c-10.07,0-19.537,3.921-26.658,11.044C3.921,18.163,0,27.631,0,37.702
	S3.921,57.239,11.044,64.36c7.121,7.122,16.588,11.044,26.658,11.044c8.447,0,16.45-2.79,23.019-7.882l31.067,31.07
	c0.939,0.94,2.17,1.41,3.402,1.41c1.231,0,2.463-0.469,3.402-1.41C100.47,96.713,100.47,93.667,98.591,91.788z M17.847,57.556
	c-5.304-5.304-8.224-12.354-8.224-19.854s2.92-14.552,8.224-19.856s12.354-8.224,19.854-8.224c7.502,0,14.552,2.92,19.856,8.224
	s8.224,12.356,8.224,19.856s-2.92,14.551-8.224,19.854S45.203,65.78,37.702,65.78C30.201,65.78,23.151,62.86,17.847,57.556z"/>
</svg>
