<svg aria-hidden="true" style="position: absolute; width: 0; height: 0; overflow: hidden;" version="1.1" xmlns="http://www.w3.org/2000/svg" xmlns:xlink="http://www.w3.org/1999/xlink">
<defs>
<symbol id="icon-user" viewBox="0 0 28 32">
<title>user</title>
<path d="M0.258 21.356l0.009 8.044c0.227 1.508 0.932 2.19 2.43 2.338l22.454 0.003c1.522-0.15 2.226-0.833 2.455-2.36l0.007-8.018c0.022-3.026-4.827-4.749-7.078-5.385-0.355 0.357-0.875 0.792-1.23 1.089-0.009 0.008-0.019 0.015-0.027 0.023 2.318 0.569 6.948 2.144 6.934 4.269v7.848c-0.141 0.91-0.392 1.074-1.127 1.149l-22.268 0.001c-0.761-0.076-1.012-0.239-1.151-1.11l-0.003-7.897c-0.014-2.101 4.611-3.662 6.993-4.243-0.462-0.325-0.893-0.693-1.286-1.096-2.262 0.638-7.131 2.359-7.11 5.343z"></path>
<path d="M13.935 0.258c-4.225 0-7.662 3.401-7.662 7.582s3.437 7.583 7.662 7.583c4.226 0 7.663-3.401 7.663-7.582 0-4.182-3.437-7.583-7.663-7.583zM13.935 14.039c-3.452 0-6.26-2.781-6.26-6.199 0-3.419 2.808-6.199 6.26-6.199s6.26 2.781 6.26 6.199c0 3.418-2.808 6.199-6.26 6.199z"></path>
</symbol>
<symbol id="icon-friends" viewBox="0 0 54 32">
<title>friends</title>
<path d="M53.532 30.928c0-2.843 0.001-5.528-1.159-7.511-0.935-1.601-2.527-2.579-4.885-3.012 1.63-1.049 2.716-2.875 2.716-4.953 0-3.247-2.643-5.889-5.889-5.889s-5.889 2.643-5.889 5.889c0 2.078 1.084 3.903 2.713 4.952-0.945 0.176-1.768 0.438-2.47 0.797-0.147-0.348-0.309-0.687-0.496-1.008-1.397-2.391-3.839-3.804-7.553-4.341 2.608-1.38 4.392-4.118 4.392-7.268 0-4.533-3.687-8.22-8.22-8.22s-8.22 3.687-8.22 8.22c0 3.153 1.787 5.894 4.399 7.272-4.607 0.668-6.909 2.628-8.054 5.349-0.703-0.359-1.527-0.624-2.474-0.8 1.63-1.049 2.714-2.874 2.714-4.953 0-3.247-2.642-5.889-5.889-5.889s-5.889 2.643-5.889 5.889c0 2.079 1.085 3.905 2.716 4.953-2.359 0.433-3.951 1.412-4.886 3.012-1.159 1.983-1.159 4.668-1.159 7.511v0.711h53.483v-0.711zM39.629 15.451c0-2.584 2.102-4.686 4.686-4.686s4.686 2.102 4.686 4.686c0 2.584-2.102 4.686-4.685 4.687-0.001 0-0.002 0-0.002 0s-0.002 0-0.002 0c-2.583-0.001-4.685-2.103-4.685-4.687zM19.774 8.582c0-3.87 3.148-7.017 7.017-7.017s7.017 3.147 7.017 7.017c0 3.869-3.147 7.017-7.017 7.017s-7.017-3.148-7.017-7.017zM4.58 15.451c0-2.584 2.102-4.686 4.686-4.686s4.686 2.102 4.686 4.686c0 2.584-2.101 4.686-4.685 4.687-0.001 0-0.002 0-0.002 0s-0.001 0-0.002 0c-2.583-0.001-4.684-2.103-4.684-4.687zM2.247 24.023c1.070-1.83 3.3-2.682 7.020-2.682 2.295 0 4.014 0.333 5.245 1.009-0.686 2.345-0.733 5.132-0.735 8.085h-12.524c0.003-2.582 0.058-4.811 0.994-6.412zM14.979 30.435c0.007-7.951 0.289-13.633 11.812-13.633 5.463 0 8.75 1.27 10.343 3.996 1.415 2.422 1.467 5.764 1.469 9.636h-23.624zM39.805 30.435c-0.002-2.934-0.039-5.733-0.73-8.087 1.231-0.674 2.948-1.007 5.24-1.007 3.72 0 5.95 0.852 7.020 2.682 0.936 1.601 0.991 3.83 0.995 6.412h-12.525z"></path>
</symbol>
<symbol id="icon-message" viewBox="0 0 39 32">
<title>message</title>
<path d="M33.525 0.203h-28.131c-2.744 0-4.977 2.233-4.977 4.977v21.639c0 2.744 2.233 4.977 4.977 4.977h28.131c2.744 0 4.977-2.233 4.977-4.977v-21.639c0-2.744-2.232-4.977-4.977-4.977zM37.203 26.819c0 2.028-1.65 3.678-3.678 3.678h-28.131c-2.028 0-3.678-1.65-3.678-3.678v-20.503l17.744 10.437 17.744-10.437v20.503zM37.191 4.816l-17.731 10.431-17.731-10.43 0.054-0.298c0.321-1.748 1.84-3.016 3.612-3.016h28.131c1.772 0 3.292 1.268 3.612 3.016l0.054 0.297z"></path>
</symbol>
<symbol id="icon-howdid" viewBox="0 0 32 32">
<title>howdid</title>
<path fill="#eb5d1d" style="fill: var(--color1, #eb5d1d)" d="M15.88 0c-7.897 0-14.454 5.723-15.759 13.246 2.794-3.008 6.904-5.121 11.942-5.154 6.126-0.040 11.243 3.57 13.041 9.364-1.672-4.239-5.090-6.419-9.7-6.419-6.122 0-10.998 4.206-10.819 12.538 0.039 1.81 0.057 2.569 0.164 3.913 2.88 2.791 6.803 4.512 11.131 4.512 8.837 0 16-7.163 16-16s-7.164-16-16-16zM25.246 23.055c-1.986 0-3.595-0.805-3.595-1.798s1.61-1.798 3.595-1.798 3.595 0.805 3.595 1.798-1.609 1.798-3.595 1.798z"></path>
<path fill="#eb5d1d" style="fill: var(--color1, #eb5d1d)" d="M4.748 27.488v0 0z"></path>
<path fill="#eb5d1d" style="fill: var(--color1, #eb5d1d)" d="M0.121 13.246v0z"></path>
</symbol>
<symbol id="icon-arrow-rotate" viewBox="0 0 38 32">
<title>arrow-rotate</title>
<path d="M12.561 0.606c10.392-1.438 16.445 5.737 20.104 12.118l3.518-2.434c0.946-0.711 1.627-0.331 1.52 0.848l-1.959 16.613c-0.107 1.179-1.001 1.616-1.998 0.974l-14.211-9.467c-0.995-0.642-0.856-1.32 0.313-1.513l5.178-1.406c0 0-3.113-6.419-9.418-7.536-7.242-1.283-16.768 7.971-10.288 22.779-10.49-13.214-4.085-29.407 7.241-30.975z"></path>
</symbol>
<symbol id="icon-green-flag" viewBox="0 0 22 32">
<title>green-flag</title>
<path d="M21.627 7.375l-19.189-7.279c-0.124-0.048-0.573-0.097-0.681-0.097h-0.842c-0.374 0-0.677 0.303-0.677 0.677v30.646c0 0.374 0.303 0.677 0.677 0.677h0.843c0.374 0 0.678-0.303 0.678-0.677v-15.401l0.004-0.001 19.188-7.28c0.264-0.099 0.437-0.351 0.437-0.632s-0.175-0.533-0.438-0.633z"></path>
</symbol>
<symbol id="icon-map-pin" viewBox="0 0 22 32">
<title>map-pin</title>
<path d="M11.152 0c-6.096 0-11.039 4.943-11.039 11.039 0 10.026 11.039 20.961 11.039 20.961s11.039-11.549 11.039-20.961c0-6.096-4.943-11.039-11.039-11.039zM11.152 17.906c-3.793 0-6.867-3.075-6.867-6.867s3.075-6.867 6.867-6.867c3.793 0 6.867 3.075 6.867 6.867s-3.075 6.867-6.867 6.867z"></path>
</symbol>
<symbol id="icon-facebook" viewBox="0 0 32 32">
<title>facebook</title>
<path d="M28 0h-24c-2.2 0-4 1.8-4 4v24c0 2.2 1.8 4 4 4h24c2.2 0 4-1.8 4-4v-24c0-2.2-1.8-4-4-4zM23.761 16.005h-2.243c0 3.584 0 7.995 0 7.995h-3.323c0 0 0-4.367 0-7.995h-1.58v-2.824h1.58v-1.828c0-1.307 0.621-3.353 3.352-3.353l2.461 0.009v2.743c0 0-1.496 0-1.787 0s-0.705 0.147-0.705 0.769v1.66h2.533l-0.289 2.824z"></path>
</symbol>
<symbol id="icon-insta" viewBox="0 0 32 32">
<title>insta</title>
<path d="M28 0h-24c-2.2 0-4 1.8-4 4v24c0 2.2 1.8 4 4 4h24c2.2 0 4-1.8 4-4v-24c0-2.2-1.8-4-4-4zM22.644 5.067c0-0.667 0.4-1.067 1.067-1.067h3.333c0.533 0 0.933 0.4 0.933 1.067v3.2c0 0.667-0.4 1.067-1.067 1.067h-3.333c-0.533 0-0.933-0.4-0.933-1.067v-3.2zM10.497 13.467c0.364-0.708 0.864-1.327 1.455-1.839 0.079-0.068 0.16-0.133 0.243-0.197 0.16-0.125 0.323-0.248 0.496-0.357 0.253-0.157 0.513-0.301 0.789-0.421 0.108-0.048 0.223-0.081 0.333-0.123 0.233-0.087 0.472-0.161 0.717-0.219 0.108-0.025 0.216-0.051 0.327-0.071 0.352-0.063 0.709-0.107 1.077-0.107 0.383 0 0.753 0.045 1.117 0.107 0.113 0.020 0.225 0.044 0.337 0.071 0.253 0.057 0.499 0.133 0.74 0.22 0.113 0.041 0.231 0.075 0.34 0.121 0.283 0.12 0.551 0.264 0.809 0.423 0.175 0.108 0.339 0.231 0.501 0.355 0.085 0.065 0.169 0.132 0.252 0.201 0.6 0.512 1.104 1.131 1.471 1.837 0.433 0.836 0.701 1.776 0.701 2.8 0 3.467-2.8 6.133-6.267 6.133-3.333 0-6.133-2.667-6.133-6.133-0.004-1.025 0.263-1.965 0.693-2.801zM29.223 27.889c0 0.733-0.6 1.333-1.333 1.333h-23.889c-0.733 0-1.333-0.6-1.333-1.333l0.111-14.423h3.769c-0.265 0.888-0.413 1.827-0.413 2.8 0 5.404 4.396 9.8 9.8 9.8 5.571 0 9.933-4.305 9.933-9.8 0-0.977-0.144-1.915-0.403-2.8h3.869l-0.111 14.423z"></path>
</symbol>
<symbol id="icon-twitter" viewBox="0 0 32 32">
<title>twitter</title>
<path d="M28 0h-24c-2.2 0-4 1.8-4 4v24c0 2.2 1.8 4 4 4h24c2.2 0 4-1.8 4-4v-24c0-2.2-1.8-4-4-4zM24.483 11.649c0.009 0.188 0.013 0.375 0.013 0.565 0 5.784-4.403 12.453-12.453 12.453-2.472 0-4.772-0.724-6.709-1.967 0.344 0.041 0.692 0.060 1.044 0.060 2.052 0 3.937-0.697 5.435-1.872-1.915-0.033-3.532-1.3-4.087-3.039 0.267 0.052 0.54 0.079 0.823 0.079 0.4 0 0.787-0.052 1.152-0.153-2-0.401-3.511-2.172-3.511-4.292 0-0.019 0-0.036 0-0.055 0.591 0.328 1.265 0.525 1.983 0.547-1.173-0.784-1.945-2.125-1.945-3.644 0-0.803 0.216-1.552 0.592-2.2 2.157 2.648 5.384 4.391 9.021 4.573-0.075-0.32-0.113-0.653-0.113-0.997 0-2.416 1.96-4.375 4.377-4.375 1.257 0 2.396 0.531 3.195 1.38 0.996-0.195 1.933-0.56 2.78-1.060-0.328 1.021-1.021 1.88-1.924 2.419 0.884-0.104 1.728-0.339 2.512-0.688-0.585 0.877-1.328 1.648-2.184 2.265z"></path>
</symbol>
<symbol id="icon-calendar" viewBox="0 0 29 32">
<title>calendar</title>
<path d="M26.044 3.161h-4.277v-2.557c0.001-0.334-0.273-0.604-0.609-0.604s-0.609 0.271-0.609 0.604v2.557h-12.007v-2.557c0-0.334-0.273-0.604-0.609-0.604s-0.609 0.271-0.609 0.604v2.557h-4.277c-1.681 0-3.047 1.355-3.047 3.021v22.799c0 1.665 1.366 3.020 3.047 3.020h22.997c1.68 0 3.047-1.355 3.047-3.021v-22.798c0-1.666-1.366-3.021-3.047-3.021zM3.047 4.369h4.277v2.557c0 0.334 0.272 0.604 0.609 0.604s0.609-0.271 0.609-0.604v-2.557h12.007v2.557c0 0.334 0.273 0.604 0.609 0.604s0.609-0.271 0.609-0.604v-2.557h4.277c1.008 0 1.828 0.813 1.828 1.812v3.372h-26.653v-3.372c0-1 0.819-1.812 1.828-1.812zM26.044 30.792h-22.997c-1.008 0-1.828-0.813-1.828-1.812v-18.219h26.654v18.219c-0.001 1-0.82 1.812-1.829 1.812z"></path>
<path d="M8.057 13.139h-2.686c-1.008 0-1.828 0.813-1.828 1.812v2.662c0 0.999 0.82 1.812 1.828 1.812h2.685c1.008 0 1.828-0.813 1.828-1.812v-2.662c0.001-0.999-0.819-1.812-1.827-1.812zM8.666 17.615c0 0.333-0.273 0.604-0.609 0.604h-2.686c-0.335 0-0.609-0.271-0.609-0.604v-2.662c0-0.333 0.273-0.604 0.609-0.604h2.685c0.335 0 0.609 0.271 0.609 0.604v2.662z"></path>
<path d="M8.057 21.224h-2.686c-1.008 0-1.828 0.813-1.828 1.812v2.662c0 0.999 0.82 1.812 1.828 1.812h2.685c1.008 0 1.828-0.813 1.828-1.812v-2.662c0.001-1-0.819-1.812-1.827-1.812zM8.666 25.698c0 0.333-0.273 0.604-0.609 0.604h-2.686c-0.335 0-0.609-0.271-0.609-0.604v-2.662c0-0.333 0.273-0.604 0.609-0.604h2.685c0.335 0 0.609 0.271 0.609 0.604v2.662z"></path>
<path d="M15.889 13.139h-2.685c-1.008 0-1.828 0.813-1.828 1.812v2.662c0 0.999 0.82 1.812 1.828 1.812h2.685c1.008 0 1.828-0.813 1.828-1.812v-2.662c0-0.999-0.82-1.812-1.828-1.812zM16.497 17.615c0 0.333-0.273 0.604-0.609 0.604h-2.685c-0.335 0-0.609-0.271-0.609-0.604v-2.662c0-0.333 0.273-0.604 0.609-0.604h2.685c0.336 0 0.609 0.271 0.609 0.604v2.662z"></path>
<path d="M15.889 21.224h-2.685c-1.008 0-1.828 0.813-1.828 1.812v2.662c0 0.999 0.82 1.812 1.828 1.812h2.685c1.008 0 1.828-0.813 1.828-1.812v-2.662c0-1-0.82-1.812-1.828-1.812zM16.497 25.698c0 0.333-0.273 0.604-0.609 0.604h-2.685c-0.335 0-0.609-0.271-0.609-0.604v-2.662c0-0.333 0.273-0.604 0.609-0.604h2.685c0.336 0 0.609 0.271 0.609 0.604v2.662z"></path>
<path d="M23.72 13.139h-2.685c-1.008 0-1.828 0.813-1.828 1.812v2.662c0 0.999 0.82 1.812 1.828 1.812h2.685c1.008 0 1.828-0.813 1.828-1.812v-2.662c0-0.999-0.82-1.812-1.828-1.812zM24.329 17.615c0 0.333-0.273 0.604-0.609 0.604h-2.685c-0.335 0-0.609-0.271-0.609-0.604v-2.662c0-0.333 0.273-0.604 0.609-0.604h2.685c0.335 0 0.609 0.271 0.609 0.604v2.662z"></path>
<path d="M23.72 21.224h-2.685c-1.008 0-1.828 0.813-1.828 1.812v2.662c0 0.999 0.82 1.812 1.828 1.812h2.685c1.008 0 1.828-0.813 1.828-1.812v-2.662c0-1-0.82-1.812-1.828-1.812zM24.329 25.698c0 0.333-0.273 0.604-0.609 0.604h-2.685c-0.335 0-0.609-0.271-0.609-0.604v-2.662c0-0.333 0.273-0.604 0.609-0.604h2.685c0.335 0 0.609 0.271 0.609 0.604v2.662z"></path>
</symbol>
<symbol id="icon-menu-close" viewBox="0 0 40 32">
<title>menu-close</title>
<path d="M3.918 28.284l28.284-28.284 3.879 3.879-28.284 28.284-3.879-3.879z"></path>
<path d="M3.918 3.716l3.879-3.879 28.284 28.284-3.879 3.879-28.284-28.284z"></path>
</symbol>
<symbol id="icon-arrow-down" viewBox="0 0 32 32">
<title>arrow-down</title>
<path d="M16.183 25.12h-0.368c-0.67 0-1.31-0.267-1.78-0.735l-13.302-13.23c-0.977-0.975-0.977-2.56 0-3.543 0.98-0.975 2.577-0.975 3.557 0l11.709 11.653 11.709-11.653c0.98-0.975 2.573-0.975 3.554 0 0.984 0.983 0.984 2.568 0 3.543l-13.294 13.23c-0.483 0.468-1.118 0.735-1.785 0.735z"></path>
</symbol>
<symbol id="icon-arrow-left" viewBox="0 0 18 32">
<title>arrow-left</title>
<path d="M0 15.817v0.368c0 0.67 0.267 1.31 0.735 1.78l13.23 13.302c0.975 0.977 2.56 0.977 3.543 0 0.975-0.98 0.975-2.577 0-3.557l-11.653-11.709 11.653-11.709c0.975-0.98 0.975-2.573 0-3.554-0.983-0.984-2.568-0.984-3.543 0l-13.23 13.295c-0.468 0.483-0.735 1.118-0.735 1.785z"></path>
</symbol>
<symbol id="icon-arrow-right" viewBox="0 0 18 32">
<title>arrow-right</title>
<path d="M18.24 15.817v0.368c0 0.67-0.267 1.31-0.735 1.78l-13.23 13.302c-0.975 0.977-2.56 0.977-3.543 0-0.975-0.98-0.975-2.577 0-3.557l11.653-11.709-11.653-11.709c-0.975-0.98-0.975-2.573 0-3.554 0.983-0.984 2.568-0.984 3.543 0l13.23 13.294c0.468 0.483 0.735 1.118 0.735 1.785z"></path>
</symbol>
<symbol id="icon-arrow-up" viewBox="0 0 32 32">
<title>arrow-up</title>
<path d="M15.817 6.88h0.368c0.67 0 1.31 0.267 1.78 0.735l13.302 13.23c0.977 0.975 0.977 2.56 0 3.543-0.98 0.975-2.577 0.975-3.557 0l-11.709-11.653-11.709 11.653c-0.98 0.975-2.573 0.975-3.554 0-0.984-0.983-0.984-2.568 0-3.543l13.294-13.23c0.483-0.468 1.118-0.735 1.785-0.735z"></path>
</symbol>
<symbol id="icon-community" viewBox="0 0 32 32">
<title>community</title>
<path d="M5.475 32c-0.069 0-0.139-0.015-0.204-0.045-0.17-0.079-0.279-0.25-0.279-0.437v-6.302h-4.508c-0.267 0-0.484-0.216-0.484-0.483v-19.285c0-0.267 0.217-0.483 0.484-0.483h4.45v-4.481c0-0.267 0.216-0.483 0.484-0.483h26.1c0.267 0 0.483 0.216 0.483 0.483v19.286c0 0.267-0.216 0.483-0.483 0.483h-4.45v4.481c0 0.267-0.216 0.483-0.483 0.483h-12.809l-7.989 6.672c-0.089 0.074-0.199 0.112-0.31 0.112zM0.967 24.25h4.508c0.267 0 0.484 0.216 0.484 0.483v5.751l7.33-6.122c0.087-0.073 0.197-0.113 0.31-0.113h12.501v-18.32h-25.133v18.32zM27.067 19.286h3.967v-18.32h-25.133v3.998h20.683c0.267 0 0.483 0.216 0.483 0.483v13.839z"></path>
</symbol>
<symbol id="icon-globe" viewBox="0 0 32 32">
<title>globe</title>
<path d="M16 32c-8.822 0-16-7.178-16-16s7.178-16 16-16c8.822 0 16 7.178 16 16s-7.178 16-16 16zM5.585 26.915c2.408 2.299 5.573 3.811 9.077 4.12-2.12-1.711-3.823-3.87-5.022-6.305-1.576 0.538-2.964 1.278-4.055 2.185zM22.553 24.802c-1.191 2.393-2.871 4.517-4.955 6.207 3.398-0.359 6.462-1.85 8.81-4.088-1.044-0.87-2.36-1.587-3.854-2.12zM16.453 23.729v7.022c2.213-1.646 3.989-3.789 5.228-6.233-1.607-0.476-3.384-0.75-5.228-0.789zM10.516 24.457c1.198 2.385 2.905 4.485 5.030 6.121v-6.849c-1.768 0.036-3.475 0.289-5.030 0.728zM22.938 23.981c1.591 0.576 2.994 1.352 4.108 2.294 2.414-2.593 3.928-6.035 4.040-9.822h-6.49c-0.056 2.642-0.633 5.198-1.659 7.528zM0.913 16.453c0.112 3.784 1.624 7.222 4.033 9.814 1.162-0.98 2.638-1.78 4.312-2.362-1.005-2.309-1.57-4.84-1.626-7.452h-6.72zM16.453 22.822c1.981 0.041 3.893 0.344 5.621 0.871 0.997-2.237 1.559-4.697 1.616-7.24h-7.237v6.369zM8.539 16.453c0.056 2.519 0.607 4.956 1.587 7.175 1.676-0.489 3.517-0.769 5.42-0.806v-6.369h-7.007zM24.596 15.547h6.492c-0.112-3.788-1.626-7.228-4.040-9.822-1.12 0.947-2.531 1.725-4.132 2.303 1.032 2.326 1.617 4.881 1.68 7.519zM16.453 15.547h7.236c-0.064-2.541-0.634-4.999-1.638-7.233-1.722 0.523-3.626 0.823-5.597 0.863v6.369zM8.54 15.547h7.006v-6.369c-1.894-0.038-3.727-0.316-5.396-0.8-0.987 2.217-1.546 4.652-1.61 7.169zM0.913 15.547h6.721c0.063-2.611 0.635-5.138 1.648-7.445-1.683-0.582-3.168-1.385-4.335-2.37-2.409 2.593-3.921 6.031-4.033 9.815zM10.544 7.551c1.548 0.435 3.245 0.684 5.003 0.721v-6.789c-2.109 1.623-3.807 3.706-5.003 6.069zM16.453 1.308v6.963c1.834-0.039 3.602-0.31 5.202-0.782-1.238-2.423-3.004-4.547-5.202-6.181zM5.585 5.085c1.097 0.912 2.494 1.655 4.081 2.194 1.213-2.446 2.936-4.612 5.079-6.321-3.538 0.292-6.733 1.81-9.16 4.127zM17.514 0.982c2.108 1.689 3.808 3.82 5.014 6.225 1.505-0.534 2.83-1.253 3.88-2.129-2.366-2.256-5.463-3.753-8.894-4.096z"></path>
</symbol>
<symbol id="icon-menu" viewBox="0 0 32 32">
<title>menu</title>
<path d="M0 3.2h32v4.389h-32v-4.389z"></path>
<path d="M0 13.805h32v4.389h-32v-4.389z"></path>
<path d="M0 24.411h32v4.389h-32v-4.389z"></path>
</symbol>
<symbol id="icon-share" viewBox="0 0 32 32">
<title>share</title>
<path d="M16 0c-8.837 0-16 7.163-16 16s7.163 16 16 16 16-7.163 16-16-7.163-16-16-16zM12.771 16c0 0.444-0.087 0.868-0.242 1.257l5.403 3.784c0.598-0.535 1.387-0.861 2.252-0.861 1.865 0 3.378 1.512 3.378 3.378 0 1.865-1.512 3.378-3.378 3.378s-3.378-1.512-3.378-3.378c0-0.444 0.087-0.868 0.242-1.257l-5.403-3.784c-0.598 0.535-1.387 0.861-2.252 0.861-1.865 0-3.378-1.512-3.378-3.378s1.512-3.378 3.378-3.378c0.866 0 1.655 0.326 2.252 0.861l5.404-3.783c-0.156-0.389-0.242-0.812-0.242-1.257 0-1.866 1.512-3.378 3.378-3.378 1.865 0 3.378 1.512 3.378 3.378s-1.512 3.378-3.378 3.378c-0.866 0-1.655-0.326-2.252-0.861l-5.403 3.784c0.154 0.388 0.241 0.812 0.241 1.256z"></path>
</symbol>
<symbol id="icon-shop" viewBox="0 0 32 32">
<title>shop</title>
<path d="M24.519 29.92c-1.664 0-3.018-1.346-3.018-3.001s1.354-3.001 3.018-3.001c1.664 0 3.018 1.346 3.018 3.001s-1.354 3.001-3.018 3.001zM24.519 24.871c-1.136 0-2.060 0.919-2.060 2.049s0.924 2.048 2.060 2.048c1.136 0 2.060-0.919 2.060-2.048s-0.924-2.049-2.060-2.049zM13.949 29.92c-1.664 0-3.018-1.346-3.018-3.001s1.354-3.001 3.018-3.001 3.018 1.346 3.018 3.001c0 1.655-1.354 3.001-3.018 3.001zM13.949 24.871c-1.136 0-2.060 0.919-2.060 2.049s0.924 2.048 2.060 2.048c1.136 0 2.060-0.919 2.060-2.048s-0.924-2.049-2.060-2.049zM28.559 19.845h-16.772c-0.23 0-0.427-0.162-0.47-0.386l-3.178-16.428h-7.66c-0.264 0-0.479-0.213-0.479-0.476s0.214-0.476 0.479-0.476h8.056c0.23 0 0.427 0.162 0.47 0.386l1.474 7.62c0.057-0.024 0.119-0.036 0.185-0.036h20.857c0.264 0 0.479 0.213 0.479 0.476s-0.214 0.476-0.479 0.476h-20.857c-0.003 0-0.005 0-0.008 0l0.672 3.474h19.050c0.264 0 0.479 0.213 0.479 0.476s-0.214 0.476-0.479 0.476h-18.865l0.67 3.466h16.376c0.264 0 0.479 0.213 0.479 0.476s-0.214 0.475-0.478 0.475z"></path>
</symbol>
<symbol id="icon-tick" viewBox="0 0 32 32">
<title>tick</title>
<path d="M12.296 28.5c-0.59 0-1.16-0.222-1.597-0.627l-9.936-9.194c-0.96-0.889-1.024-2.393-0.142-3.36 0.883-0.967 2.376-1.031 3.335-0.143l8.143 7.535 15.754-18.387c0.853-0.994 2.342-1.105 3.329-0.246 0.987 0.858 1.096 2.36 0.244 3.354l-17.343 20.244c-0.417 0.488-1.013 0.783-1.65 0.82-0.045 0.003-0.091 0.004-0.137 0.004z"></path>
</symbol>
<symbol id="icon-uk-flag" viewBox="0 0 32 32">
<title>uk-flag</title>
<path fill="#253473" style="fill: var(--color2, #253473)" d="M28.799 20.171l2.225 1.336c0.161-0.44 0.3-0.886 0.421-1.336h-2.646z"></path>
<path fill="#253473" style="fill: var(--color2, #253473)" d="M0.551 20.171c0.131 0.486 0.286 0.967 0.464 1.442l2.399-1.442h-2.863z"></path>
<path fill="#253473" style="fill: var(--color2, #253473)" d="M27.982 5.4c-2.169-2.457-4.96-4.107-7.96-4.885v9.671l7.96-4.786z"></path>
<path fill="#253473" style="fill: var(--color2, #253473)" d="M31.46 11.874c-0.109-0.409-0.233-0.815-0.376-1.217l-2.026 1.217h2.402z"></path>
<path fill="#253473" style="fill: var(--color2, #253473)" d="M4.197 26.806c2.197 2.406 5.002 4.006 8.005 4.738v-9.546l-8.005 4.808z"></path>
<path fill="#253473" style="fill: var(--color2, #253473)" d="M0.955 10.551c-0.157 0.435-0.293 0.878-0.412 1.324h2.614l-2.202-1.324z"></path>
<path fill="#253473" style="fill: var(--color2, #253473)" d="M20.022 31.489c1.906-0.494 3.752-1.346 5.437-2.581 0.893-0.654 1.698-1.384 2.413-2.174l-7.85-4.72v9.475z"></path>
<path fill="#253473" style="fill: var(--color2, #253473)" d="M12.202 0.455c-1.985 0.484-3.911 1.357-5.662 2.64-0.913 0.67-1.733 1.419-2.46 2.23l8.123 4.878v-9.748z"></path>
<path fill="#e2231a" style="fill: var(--color3, #e2231a)" d="M8.436 20.171l-6.274 3.867c0.282 0.485 0.592 0.96 0.931 1.423 0.055 0.075 0.114 0.146 0.17 0.22l8.939-5.51h-3.766z"></path>
<path fill="#e2231a" style="fill: var(--color3, #e2231a)" d="M23.437 20.21l6.366 3.889c0.286-0.488 0.543-0.989 0.774-1.5l-3.992-2.389h-3.148z"></path>
<path fill="#e2231a" style="fill: var(--color3, #e2231a)" d="M23.756 11.874l6.151-3.782c-0.302-0.529-0.633-1.047-1.001-1.55-0.010-0.013-0.020-0.025-0.030-0.039l-8.721 5.37h3.601z"></path>
<path fill="#e2231a" style="fill: var(--color3, #e2231a)" d="M9.144 11.874l-6.895-4.062c-0.286 0.48-0.542 0.972-0.774 1.475l4.394 2.587h3.275z"></path>
<path fill="#e2231a" style="fill: var(--color3, #e2231a)" d="M31.69 12.861h-13.242v-12.672c-1.541-0.239-3.116-0.252-4.673-0.035v12.707h-13.464c-0.42 2.099-0.416 4.278 0.024 6.401h13.441v12.583c1.544 0.217 3.118 0.209 4.673-0.031v-12.552h13.216c0.435-2.097 0.449-4.276 0.025-6.401z"></path>
</symbol>
<symbol id="icon-watch" viewBox="0 0 20 32">
<title>watch</title>
<path d="M10.080 7.291c-4.769 0-8.649 3.907-8.649 8.709s3.88 8.709 8.649 8.709c4.769 0 8.649-3.907 8.649-8.709s-3.88-8.709-8.649-8.709zM10.41 24.036v-1.452c0-0.184-0.148-0.332-0.33-0.332s-0.33 0.149-0.33 0.332v1.452c-4.142-0.171-7.48-3.532-7.65-7.703h1.443c0.182 0 0.33-0.149 0.33-0.332s-0.148-0.332-0.33-0.332h-1.443c0.17-4.172 3.507-7.532 7.65-7.703v1.452c0 0.184 0.148 0.332 0.33 0.332s0.33-0.149 0.33-0.332v-1.452c4.142 0.171 7.48 3.532 7.65 7.703h-1.443c-0.182 0-0.33 0.149-0.33 0.332s0.148 0.332 0.33 0.332h1.443c-0.17 4.172-3.508 7.532-7.65 7.703z"></path>
<path d="M15.010 7.149l-1.584-6.892c-0.035-0.151-0.168-0.258-0.322-0.258h-6.048c-0.154 0-0.287 0.107-0.322 0.258l-1.584 6.892c-3.071 1.741-5.15 5.056-5.15 8.851s2.079 7.109 5.15 8.851l1.584 6.892c0.035 0.151 0.168 0.258 0.322 0.258h6.048c0.154 0 0.287-0.107 0.322-0.258l1.57-6.828c0.004-0.020 0.007-0.040 0.008-0.060 3.075-1.74 5.157-5.057 5.157-8.854 0-3.795-2.079-7.109-5.15-8.851zM7.318 0.665h5.523l1.4 6.091c-1.269-0.582-2.679-0.906-4.162-0.906s-2.892 0.324-4.162 0.906l1.4-6.091zM12.842 31.335h-5.523l-1.4-6.091c1.269 0.582 2.678 0.906 4.162 0.906s2.892-0.324 4.162-0.906l-1.4 6.091zM10.080 25.485c-5.194 0-9.42-4.255-9.42-9.485s4.226-9.485 9.42-9.485 9.42 4.255 9.42 9.485-4.226 9.485-9.42 9.485z"></path>
<path d="M12.579 13.27l-1.789 1.802c-0.196-0.153-0.442-0.245-0.709-0.245-0.244 0-0.469 0.076-0.657 0.205l-3.157-3.179c-0.129-0.13-0.338-0.13-0.467 0s-0.129 0.34 0 0.47l3.198 3.22c0.003 0.003 0.005 0.004 0.008 0.006-0.057 0.139-0.089 0.29-0.089 0.45 0 0.646 0.522 1.172 1.164 1.172s1.164-0.526 1.164-1.172c0-0.135-0.024-0.263-0.066-0.384 0.008-0.007 0.016-0.012 0.024-0.020l1.843-1.856c0.129-0.13 0.129-0.34 0-0.47s-0.338-0.13-0.467 0zM10.080 16.507c-0.278 0-0.504-0.228-0.504-0.507s0.226-0.508 0.504-0.508c0.278 0 0.504 0.228 0.504 0.508s-0.226 0.507-0.504 0.507z"></path>
</symbol>
<symbol id="icon-logo" viewBox="0 0 47 32">
<title>logo</title>
<path d="M27.379 0h-10.491v9.315h-8.070v-9.315h-8.762v26.515h8.762v-9.361h8.070v9.361h8.762v-19.769l-4.173 0.978-1.453-5.556 5.626-1.658z"></path>
<path d="M46.493 2.721l-12.1-2.721h-1.273v26.515h1.273v-21.035z"></path>
<path d="M2.293 31.889h-0.537v-1.107h-1.219v1.107h-0.537v-2.726h0.537v1.1h1.219v-1.1h0.537v2.726z"></path>
<path d="M3.109 29.838c0.125-0.215 0.294-0.386 0.507-0.513s0.445-0.191 0.694-0.191c0.249 0 0.481 0.064 0.694 0.191s0.384 0.298 0.511 0.513 0.191 0.446 0.191 0.693c0 0.252-0.064 0.484-0.191 0.696s-0.298 0.381-0.511 0.505-0.445 0.187-0.694 0.187c-0.252 0-0.484-0.062-0.696-0.187s-0.381-0.293-0.505-0.505c-0.125-0.212-0.187-0.444-0.187-0.696 0-0.247 0.063-0.478 0.187-0.693zM3.591 30.967c0.075 0.133 0.178 0.239 0.307 0.317s0.273 0.117 0.431 0.117c0.153 0 0.292-0.039 0.418-0.117s0.225-0.183 0.296-0.315c0.072-0.132 0.107-0.279 0.107-0.439 0-0.163-0.037-0.311-0.111-0.444s-0.175-0.239-0.302-0.317c-0.127-0.078-0.268-0.117-0.424-0.117s-0.297 0.039-0.424 0.117c-0.127 0.078-0.228 0.183-0.302 0.317s-0.111 0.281-0.111 0.444c0 0.158 0.038 0.304 0.113 0.437z"></path>
<path d="M6.873 29.163v2.207h1.281v0.518h-1.818v-2.726h0.537z"></path>
<path d="M10.662 29.163v0.518h-1.322v0.582h1.17v0.518h-1.17v0.589h1.374v0.518h-1.911v-2.726h1.859z"></path>
<path d="M13.195 29.163v2.726h-0.537v-2.726h0.537z"></path>
<path d="M16.446 29.163v2.837h-0.015l-1.907-1.722 0.011 1.611h-0.544v-2.833h0.022l1.903 1.748-0.011-1.641h0.541z"></path>
<path d="M18.559 29.838c0.125-0.215 0.294-0.386 0.507-0.513s0.445-0.191 0.694-0.191c0.249 0 0.481 0.064 0.694 0.191s0.384 0.298 0.511 0.513 0.191 0.446 0.191 0.693c0 0.252-0.064 0.484-0.191 0.696s-0.298 0.381-0.511 0.505-0.445 0.187-0.694 0.187c-0.252 0-0.484-0.062-0.696-0.187s-0.381-0.293-0.505-0.505c-0.125-0.212-0.187-0.444-0.187-0.696 0-0.247 0.063-0.478 0.187-0.693zM19.041 30.967c0.075 0.133 0.178 0.239 0.307 0.317s0.273 0.117 0.431 0.117c0.153 0 0.292-0.039 0.418-0.117s0.225-0.183 0.296-0.315c0.072-0.132 0.107-0.279 0.107-0.439 0-0.163-0.037-0.311-0.111-0.444s-0.175-0.239-0.302-0.317c-0.127-0.078-0.268-0.117-0.424-0.117s-0.297 0.039-0.424 0.117c-0.127 0.078-0.228 0.183-0.302 0.317s-0.111 0.281-0.111 0.444c0 0.158 0.038 0.304 0.113 0.437z"></path>
<path d="M24.242 29.163v2.837h-0.015l-1.907-1.722 0.011 1.611h-0.544v-2.833h0.022l1.903 1.748-0.011-1.641h0.541z"></path>
<path d="M26.897 29.163v0.518h-1.322v0.582h1.17v0.518h-1.17v0.589h1.374v0.518h-1.911v-2.726h1.859z"></path>
<path d="M30.568 31.808c-0.119 0.059-0.356 0.119-0.659 0.119-0.704 0-1.233-0.444-1.233-1.263 0-0.782 0.53-1.311 1.304-1.311 0.311 0 0.507 0.067 0.593 0.111l-0.078 0.263c-0.122-0.059-0.296-0.104-0.504-0.104-0.585 0-0.974 0.374-0.974 1.029 0 0.611 0.352 1.004 0.959 1.004 0.196 0 0.396-0.041 0.526-0.104l0.067 0.256z"></path>
<path d="M31.063 29.393h0.322v2.226h1.067v0.271h-1.389v-2.497z"></path>
<path d="M33.093 29.393v1.478c0 0.559 0.248 0.796 0.582 0.796 0.371 0 0.607-0.245 0.607-0.796v-1.478h0.326v1.456c0 0.767-0.404 1.081-0.944 1.081-0.511 0-0.896-0.292-0.896-1.067v-1.471h0.326z"></path>
<path d="M35.259 29.426c0.141-0.030 0.363-0.052 0.589-0.052 0.322 0 0.53 0.055 0.685 0.181 0.13 0.096 0.207 0.245 0.207 0.441 0 0.241-0.159 0.452-0.422 0.548v0.007c0.237 0.059 0.515 0.256 0.515 0.626 0 0.215-0.085 0.378-0.211 0.5-0.174 0.159-0.456 0.233-0.863 0.233-0.222 0-0.392-0.015-0.5-0.030v-2.455zM35.581 30.448h0.292c0.341 0 0.541-0.178 0.541-0.418 0-0.292-0.222-0.407-0.548-0.407-0.148 0-0.233 0.011-0.285 0.022v0.803zM35.581 31.644c0.063 0.011 0.156 0.015 0.271 0.015 0.333 0 0.641-0.122 0.641-0.485 0-0.341-0.292-0.482-0.644-0.482h-0.266v0.952z"></path>
</symbol>
</defs>
</svg>
